<svg width="26" height="31" viewBox="0 0 26 31" fill="none" xmlns="http://www.w3.org/2000/svg">
<circle cx="12.9167" cy="17.576" r="12.9167" fill="#004CFF"/>
<circle cx="12.9166" cy="17.576" r="11.1944" fill="white"/>
<circle cx="12.9166" cy="17.5759" r="10.3333" fill="#004CFF"/>
<path d="M17.69 20.255C17.69 20.855 17.535 21.36 17.225 21.77C16.915 22.17 16.495 22.475 15.965 22.685C15.445 22.895 14.875 23 14.255 23H9.11V12.35H14.81C15.31 12.35 15.74 12.485 16.1 12.755C16.47 13.015 16.75 13.355 16.94 13.775C17.14 14.185 17.24 14.615 17.24 15.065C17.24 15.575 17.11 16.06 16.85 16.52C16.59 16.98 16.21 17.32 15.71 17.54C16.32 17.72 16.8 18.045 17.15 18.515C17.51 18.985 17.69 19.565 17.69 20.255ZM15.605 19.865C15.605 19.595 15.55 19.355 15.44 19.145C15.33 18.925 15.18 18.755 14.99 18.635C14.81 18.505 14.6 18.44 14.36 18.44H11.18V21.245H14.255C14.505 21.245 14.73 21.185 14.93 21.065C15.14 20.935 15.305 20.765 15.425 20.555C15.545 20.345 15.605 20.115 15.605 19.865ZM11.18 14.12V16.805H13.94C14.17 16.805 14.38 16.75 14.57 16.64C14.76 16.53 14.91 16.375 15.02 16.175C15.14 15.975 15.2 15.735 15.2 15.455C15.2 15.185 15.145 14.95 15.035 14.75C14.935 14.55 14.795 14.395 14.615 14.285C14.445 14.175 14.25 14.12 14.03 14.12H11.18Z" fill="white"/>
</svg>
