<svg width="22" height="21" viewBox="0 0 22 21" fill="none" xmlns="http://www.w3.org/2000/svg">
<path d="M20.7038 2.75067C20.6117 2.67678 20.5044 2.62546 20.3901 2.6006C20.2758 2.57573 20.1575 2.57799 20.0442 2.60718L14.1663 4.11926L8.26731 1.08323C8.10295 0.998863 7.91468 0.977802 7.73654 1.02386L1.58269 2.60718C1.41628 2.64999 1.26854 2.74882 1.16296 2.88796C1.05739 3.0271 1.00003 3.19856 1 3.3751V17.625C1.00002 17.7453 1.02667 17.864 1.07794 17.9721C1.12921 18.0802 1.20374 18.1749 1.29587 18.2489C1.38801 18.3229 1.49532 18.3744 1.60966 18.3993C1.72401 18.4243 1.84237 18.4221 1.95577 18.3929L7.83365 16.8809L13.7327 19.9169C13.8398 19.9712 13.9575 19.9996 14.0769 20C14.1398 20 14.2025 19.992 14.2635 19.9762L20.4173 18.3929C20.5837 18.3501 20.7315 18.2513 20.837 18.1122C20.9426 17.973 21 17.8016 21 17.625V3.3751C21 3.25469 20.9734 3.13586 20.922 3.02766C20.8707 2.91945 20.7961 2.82472 20.7038 2.75067ZM7.92308 15.25C7.86019 15.2501 7.79754 15.258 7.73654 15.2738L2.53846 16.6107V3.99358L7.83365 2.63093L7.92308 2.67645V15.25ZM19.4615 17.0065L14.1663 18.3692L14.0769 18.3237V5.75008C14.1398 5.75037 14.2024 5.74272 14.2635 5.72732L19.4615 4.38941V17.0065Z" stroke="#004CFF" stroke-width="1.3"/>
</svg>
