<svg width="22" height="21" viewBox="0 0 22 21" fill="none" xmlns="http://www.w3.org/2000/svg">
<path d="M19.8127 8.89614L19.7707 8.44226C19.5697 6.27234 18.5595 4.25454 16.9372 2.78493C15.3148 1.31524 13.1973 0.5 11 0.5C8.80269 0.5 6.68524 1.31524 5.06284 2.78493C3.44054 4.25454 2.43033 6.27234 2.22931 8.44226L2.18726 8.89614H1.73144H0.846154C0.753224 8.89614 0.6648 8.93283 0.600148 8.99704C0.535702 9.06103 0.500098 9.14705 0.5 9.23603C0.50365 11.1422 1.03196 13.0114 2.0281 14.6415C3.02437 16.2717 4.45079 17.601 6.15348 18.485L6.42308 18.625V18.9288V19.3195C6.42308 19.6314 6.54784 19.9313 6.77106 20.153C6.99439 20.3748 7.29804 20.5 7.61538 20.5H14.3846C14.702 20.5 15.0056 20.3748 15.2289 20.153C15.4522 19.9313 15.5769 19.6314 15.5769 19.3195V18.9288V18.625L15.8465 18.485C17.5492 17.601 18.9756 16.2717 19.9719 14.6415C20.968 13.0115 21.4963 11.1425 21.5 9.2364L19.8127 8.89614ZM19.8127 8.89614H20.2686M19.8127 8.89614H20.2686M20.2686 8.89614H21.1538M20.2686 8.89614H21.1538M21.1538 8.89614C21.2468 8.89614 21.3352 8.93283 21.3999 8.99704C21.4642 9.0609 21.4998 9.14669 21.5 9.23547L21.1538 8.89614ZM16.1257 2.9907L16.0043 2.89212L15.8485 2.88021C15.6471 2.86483 15.4403 2.8546 15.2308 2.8546L15.2297 2.8546C13.5536 2.85826 11.9192 3.37567 10.5497 4.33661C9.18025 5.29759 8.14236 6.65541 7.57848 8.22499L7.33813 8.89404H8.04904H11.1692H11.4746L11.614 8.62243C12.6398 6.62475 14.4006 5.09446 16.5327 4.34969L17.2906 4.08492L16.7187 3.52147C16.5296 3.33521 16.3319 3.15828 16.1257 2.9907ZM12.7129 8.11748L12.1903 8.89614H13.1281H18.5667H19.1255L19.0637 8.34083C18.9328 7.16565 18.5416 6.03401 17.9183 5.02715L17.7233 4.71218L17.3652 4.807C15.4612 5.31111 13.8068 6.48781 12.7129 8.11748ZM11.0003 1.17408L10.9994 1.17409C9.0052 1.17644 7.08104 1.90745 5.59387 3.22861C4.1066 4.54986 3.16033 6.36905 2.93646 8.33971L2.87325 8.89614H3.43327H6.27529H6.65145L6.7557 8.53471C7.18357 7.05135 7.99775 5.7058 9.11658 4.63385C10.2354 3.56187 11.6194 2.80141 13.1292 2.4295L14.9994 1.96882L13.1413 1.46166C12.4437 1.27127 11.7237 1.17456 11.0003 1.17408Z" stroke="#004CFF"/>
</svg>
