<svg width="20" height="21" viewBox="0 0 20 21" fill="none" xmlns="http://www.w3.org/2000/svg">
<path d="M19 10.1196V19.24C19 19.4415 18.921 19.6349 18.7803 19.7774C18.6397 19.9199 18.4489 20 18.25 20H13C12.8011 20 12.6103 19.9199 12.4697 19.7774C12.329 19.6349 12.25 19.4415 12.25 19.24V14.2998C12.25 14.199 12.2105 14.1023 12.1402 14.0311C12.0698 13.9598 11.9745 13.9198 11.875 13.9198H8.125C8.02554 13.9198 7.93016 13.9598 7.85983 14.0311C7.78951 14.1023 7.75 14.199 7.75 14.2998V19.24C7.75 19.4415 7.67098 19.6349 7.53033 19.7774C7.38968 19.9199 7.19891 20 7 20H1.75C1.55109 20 1.36032 19.9199 1.21967 19.7774C1.07902 19.6349 1 19.4415 1 19.24V10.1196C1.00018 9.71656 1.15834 9.33007 1.43969 9.04514L8.93969 1.44486C9.22096 1.16001 9.60235 1 10 1C10.3977 1 10.779 1.16001 11.0603 1.44486L18.5603 9.04514C18.8417 9.33007 18.9998 9.71656 19 10.1196Z" stroke="#004CFF" stroke-width="1.3"/>
</svg>
