<svg width="28" height="28" viewBox="0 0 28 28" fill="none" xmlns="http://www.w3.org/2000/svg">
<path d="M12.7273 2.54545V10.1818C12.7273 10.8569 12.4591 11.5044 11.9817 11.9817C11.5044 12.4591 10.8569 12.7273 10.1818 12.7273H2.54545C1.87036 12.7273 1.22291 12.4591 0.745546 11.9817C0.268181 11.5044 0 10.8569 0 10.1818V2.54545C0 1.87036 0.268181 1.22291 0.745546 0.745546C1.22291 0.268181 1.87036 0 2.54545 0H10.1818C10.8569 0 11.5044 0.268181 11.9817 0.745546C12.4591 1.22291 12.7273 1.87036 12.7273 2.54545ZM10.1818 15.2727H2.54545C1.87036 15.2727 1.22291 15.5409 0.745546 16.0183C0.268181 16.4956 0 17.1431 0 17.8182V25.4545C0 26.1296 0.268181 26.7771 0.745546 27.2545C1.22291 27.7318 1.87036 28 2.54545 28H10.1818C10.8569 28 11.5044 27.7318 11.9817 27.2545C12.4591 26.7771 12.7273 26.1296 12.7273 25.4545V17.8182C12.7273 17.1431 12.4591 16.4956 11.9817 16.0183C11.5044 15.5409 10.8569 15.2727 10.1818 15.2727ZM25.4545 0H17.8182C17.1431 0 16.4956 0.268181 16.0183 0.745546C15.5409 1.22291 15.2727 1.87036 15.2727 2.54545V10.1818C15.2727 10.8569 15.5409 11.5044 16.0183 11.9817C16.4956 12.4591 17.1431 12.7273 17.8182 12.7273H25.4545C26.1296 12.7273 26.7771 12.4591 27.2545 11.9817C27.7318 11.5044 28 10.8569 28 10.1818V2.54545C28 1.87036 27.7318 1.22291 27.2545 0.745546C26.7771 0.268181 26.1296 0 25.4545 0ZM16.5455 22.9091C16.883 22.9091 17.2067 22.775 17.4454 22.5363C17.6841 22.2976 17.8182 21.9739 17.8182 21.6364V16.5455C17.8182 16.2079 17.6841 15.8842 17.4454 15.6455C17.2067 15.4068 16.883 15.2727 16.5455 15.2727C16.2079 15.2727 15.8842 15.4068 15.6455 15.6455C15.4068 15.8842 15.2727 16.2079 15.2727 16.5455V21.6364C15.2727 21.9739 15.4068 22.2976 15.6455 22.5363C15.8842 22.775 16.2079 22.9091 16.5455 22.9091ZM26.7273 17.8182H22.9091V16.5455C22.9091 16.2079 22.775 15.8842 22.5363 15.6455C22.2976 15.4068 21.9739 15.2727 21.6364 15.2727C21.2988 15.2727 20.9751 15.4068 20.7364 15.6455C20.4977 15.8842 20.3636 16.2079 20.3636 16.5455V25.4545H16.5455C16.2079 25.4545 15.8842 25.5886 15.6455 25.8273C15.4068 26.066 15.2727 26.3897 15.2727 26.7273C15.2727 27.0648 15.4068 27.3885 15.6455 27.6272C15.8842 27.8659 16.2079 28 16.5455 28H21.6364C21.9739 28 22.2976 27.8659 22.5363 27.6272C22.775 27.3885 22.9091 27.0648 22.9091 26.7273V20.3636H26.7273C27.0648 20.3636 27.3885 20.2295 27.6272 19.9909C27.8659 19.7522 28 19.4285 28 19.0909C28 18.7534 27.8659 18.4296 27.6272 18.191C27.3885 17.9523 27.0648 17.8182 26.7273 17.8182ZM26.7273 22.9091C26.3897 22.9091 26.066 23.0432 25.8273 23.2819C25.5886 23.5205 25.4545 23.8443 25.4545 24.1818V26.7273C25.4545 27.0648 25.5886 27.3885 25.8273 27.6272C26.066 27.8659 26.3897 28 26.7273 28C27.0648 28 27.3885 27.8659 27.6272 27.6272C27.8659 27.3885 28 27.0648 28 26.7273V24.1818C28 23.8443 27.8659 23.5205 27.6272 23.2819C27.3885 23.0432 27.0648 22.9091 26.7273 22.9091Z" fill="white"/>
</svg>
