<svg width="22" height="21" viewBox="0 0 22 21" fill="none" xmlns="http://www.w3.org/2000/svg">
<path d="M20.3989 19.3776C20.3331 19.4916 20.2384 19.5863 20.1243 19.6521C20.0103 19.7179 19.8809 19.7526 19.7492 19.7526H1.74923C1.61764 19.7524 1.48841 19.7177 1.3745 19.6518C1.26059 19.5859 1.16602 19.4912 1.10029 19.3772C1.03455 19.2632 0.999966 19.1339 1 19.0024C1.00003 18.8708 1.03469 18.7415 1.10048 18.6276C2.52829 16.1591 4.72861 14.3891 7.29642 13.5501C6.02626 12.7939 5.03943 11.6417 4.48747 10.2705C3.93551 8.89922 3.84894 7.38468 4.24105 5.95945C4.63316 4.53422 5.48228 3.27711 6.658 2.38117C7.83373 1.48523 9.27105 1 10.7492 1C12.2274 1 13.6647 1.48523 14.8405 2.38117C16.0162 3.27711 16.8653 4.53422 17.2574 5.95945C17.6495 7.38468 17.563 8.89922 17.011 10.2705C16.459 11.6417 15.4722 12.7939 14.202 13.5501C16.7699 14.3891 18.9702 16.1591 20.398 18.6276C20.464 18.7415 20.4988 18.8708 20.4989 19.0024C20.4991 19.1341 20.4646 19.2635 20.3989 19.3776Z" stroke="#004CFF" stroke-width="1.3"/>
</svg>
